<svg width="87" height="52" viewBox="0 0 87 52" fill="none" xmlns="http://www.w3.org/2000/svg">
<g clip-path="url(#clip0_565_6209)">
<path d="M0 0.65657C21.8291 0.65657 21.8291 0.65657 25.751 4.45644C28.342 7.18527 29.0304 10.4538 28.9922 14.1321C28.911 17.3377 27.5715 20.1807 25.291 22.3966C23.311 24.1616 23.311 24.1616 22.4642 24.1616C23.175 25.4804 23.9307 26.7697 24.7041 28.0518C25.502 29.3747 26.2907 30.7024 27.0678 32.0378C27.6567 33.0499 28.2501 34.0592 28.8431 35.0688C28.952 35.2544 29.061 35.4399 29.1699 35.6255C29.2723 35.7999 29.3747 35.9742 29.4771 36.1486C29.5237 36.2279 29.5703 36.3073 29.6183 36.389C29.8169 36.7271 30.0164 37.064 30.2227 37.3973C30.3851 37.6869 30.3851 37.6869 30.3851 37.9495C29.1796 37.9769 27.9742 37.9979 26.7685 38.0107C26.2085 38.0169 25.6488 38.0252 25.089 38.0387C24.5485 38.0515 24.0081 38.0586 23.4675 38.0616C23.2615 38.0638 23.0555 38.0681 22.8496 38.0745C21.2388 38.1225 21.2388 38.1225 20.7442 37.7011C20.54 37.3974 20.3942 37.1068 20.2567 36.7677C20.1892 36.6517 20.1216 36.5357 20.052 36.4163C20.0016 36.3206 19.9511 36.225 19.8991 36.1265C19.84 36.0156 19.781 35.9046 19.7201 35.7903C19.6588 35.6741 19.5976 35.5579 19.5344 35.4381C18.987 34.4119 18.4314 33.3912 17.8626 32.3769C17.7929 32.2526 17.7232 32.1283 17.6514 32.0003C17.5096 31.7476 17.3678 31.4949 17.2258 31.2423C16.861 30.5924 16.4975 29.9417 16.134 29.291C16.0377 29.1189 16.0377 29.1189 15.9395 28.9433C15.8439 28.7724 15.8439 28.7724 15.7464 28.5981C15.6775 28.4817 15.6087 28.3654 15.5377 28.2455C15.3664 27.9217 15.2435 27.6297 15.1216 27.2872C14.8887 26.6917 14.6567 26.1466 14.1537 25.7374C13.1693 25.3774 12.0543 25.4996 11.0292 25.5404C10.0463 25.5621 9.06342 25.5837 8.05075 25.6061C8.05075 29.6794 8.05075 33.7527 8.05075 37.9495C5.394 37.9495 2.73725 37.9495 0 37.9495C0 25.6428 0 13.3362 0 0.65657ZM8.05075 8.14142C8.05075 11.4781 8.05075 14.8148 8.05075 18.2525C10.0594 18.2647 10.0594 18.2647 12.1086 18.2772C12.5283 18.2807 12.9479 18.2843 13.3803 18.288C13.7173 18.2892 14.0542 18.2902 14.3911 18.291C14.4764 18.292 14.5617 18.2931 14.6496 18.2941C16.4255 18.3144 17.9378 18.0954 19.3478 16.9394C20.4005 15.8907 20.8219 14.6675 20.841 13.197C20.8217 11.7156 20.3908 10.5215 19.3478 9.45455C17.936 8.23964 16.6365 8.08277 14.8349 8.10295C14.6608 8.10353 14.4867 8.10393 14.3125 8.10415C13.6725 8.1062 13.0326 8.1117 12.3926 8.1168C10.9598 8.12492 9.52699 8.13305 8.05075 8.14142Z" fill="white"/>
<path d="M30.6445 0.656616C40.2431 0.656616 49.8417 0.656616 59.7311 0.656616C59.7311 3.12662 59.7311 5.59662 59.7311 8.14146C56.2602 8.14146 52.7893 8.14146 49.2132 8.14146C49.2132 17.9781 49.2132 27.8148 49.2132 37.9495C46.5136 37.9495 43.814 37.9495 41.0326 37.9495C41.0326 28.1129 41.0326 18.2762 41.0326 8.14146C37.6045 8.14146 34.1765 8.14146 30.6445 8.14146C30.6445 5.67146 30.6445 3.20146 30.6445 0.656616Z" fill="white"/>
<path d="M71.3295 -0.0574448C71.4879 -0.0565455 71.6463 -0.0556463 71.8094 -0.0547198C76.2879 0.0241848 80.3939 1.73586 83.6247 4.85859C83.7232 4.9483 83.8216 5.03802 83.923 5.13045C85.6683 6.77978 86.9355 9.25631 87.0536 11.6848C87.112 14.2734 86.7822 16.5332 85.2722 18.6793C84.6124 19.3621 83.9564 19.789 82.9973 19.8457C82.3414 19.8051 81.9129 19.5299 81.4335 19.0979C81.0386 18.6398 81.0073 18.407 81.0034 17.8094C81.0015 17.6838 80.9997 17.5582 80.9978 17.4287C81.0285 17.0612 81.088 16.8517 81.2874 16.5455C81.7201 16.3152 81.9565 16.2828 82.4561 16.2828C82.3983 15.9557 82.35 15.7835 82.1233 15.536C81.8284 15.0561 81.8704 14.6008 81.9367 14.0505C81.9959 13.8246 82.061 13.6001 82.1315 13.3775C82.52 12.1438 82.211 11.2581 81.677 10.1111C80.1337 7.38874 77.3073 5.99654 74.4122 5.19162C72.9185 4.7971 70.9963 4.29509 69.5197 4.92425C68.8171 5.36446 68.4853 6.03321 68.2992 6.82524C68.1509 7.51965 68.1144 8.20226 68.0924 8.91083C68.0875 9.04761 68.0826 9.18439 68.0776 9.32531C68.0246 10.9549 68.0228 12.5844 68.0264 14.2147C68.0268 14.4661 68.0268 14.4661 68.0272 14.7226C68.0292 15.9646 68.0344 17.2064 68.0409 18.4483C68.0427 18.7914 68.0444 19.1344 68.046 19.4775C68.0534 20.9718 68.0637 22.4661 68.077 23.9604C68.0813 24.4534 68.0848 24.9465 68.0876 25.4395C68.0909 26.0255 68.0962 26.6115 68.1028 27.1976C68.1049 27.4139 68.1064 27.6302 68.1073 27.8466C68.1142 29.4864 68.1731 31.163 69.2113 32.5082C70.2767 33.3836 71.6803 33.8171 73.048 33.7808C74.7735 33.6002 76.0917 32.9345 77.262 31.6465C77.398 31.3732 77.5318 31.0989 77.6638 30.8237C78.1095 30.1327 78.1095 30.1327 78.557 29.9877C79.3134 29.8716 80.0725 29.9274 80.8329 29.9722C81.0659 29.9801 81.2989 29.9873 81.5319 29.9938C82.1003 30.0111 82.6675 30.0382 83.2352 30.0707C83.1968 30.2565 83.1576 30.4421 83.1183 30.6276C83.0966 30.731 83.0749 30.8344 83.0525 30.9409C82.4512 33.3738 80.6339 35.6512 78.5476 36.9362C76.7245 38.0048 74.939 38.5273 72.839 38.524C72.6972 38.5238 72.5555 38.5236 72.4094 38.5234C70.8031 38.499 69.2019 38.2282 67.7829 37.4243C67.6673 37.3596 67.5516 37.2949 67.4325 37.2283C65.3664 35.9913 64.4166 34.073 63.8175 31.7994C63.6212 30.8682 63.5903 29.9429 63.5592 28.9935C63.5539 28.8372 63.5485 28.6808 63.543 28.5198C63.4867 26.8157 63.4512 25.1114 63.4248 23.4066C63.4209 23.1527 63.4209 23.1527 63.4169 22.8937C63.3694 19.7425 63.3466 16.5911 63.338 13.4396C63.3366 12.9306 63.3343 12.4216 63.3312 11.9126C63.3276 11.307 63.326 10.7013 63.3259 10.0956C63.3256 9.87229 63.3246 9.64897 63.3229 9.42566C63.3026 6.63722 63.7726 4.0505 65.7175 1.93687C67.2794 0.426062 69.2221 -0.0759915 71.3295 -0.0574448Z" fill="white"/>
<path d="M78.041 16.9394C78.3088 17.1774 78.3088 17.1774 78.5604 17.596C78.6309 17.7058 78.7013 17.8157 78.7739 17.9289C79.344 18.8749 79.344 18.8749 79.3314 19.3384C79.2583 19.5903 79.2583 19.5903 79.0798 19.9596C79.2364 20.1621 79.2364 20.1621 79.4693 20.3536C79.5699 20.3605 79.6705 20.3674 79.7742 20.3746C80.2118 20.5147 80.3251 20.7388 80.5387 21.1369C80.6039 21.2691 80.6039 21.2691 80.6705 21.4041C80.7155 21.4934 80.7606 21.5828 80.807 21.6748C81.1299 22.3412 81.3474 22.8822 81.2873 23.6364C80.7642 24.2995 80.0664 24.6617 79.3395 25.0644C79.224 25.1314 79.1085 25.1985 78.9895 25.2675C78.8774 25.3302 78.7652 25.3928 78.6497 25.4573C78.5484 25.5144 78.4471 25.5714 78.3428 25.6301C77.9671 25.7636 77.7689 25.7239 77.3917 25.6061C76.4746 25.108 75.9609 24.3455 75.5738 23.3738C75.5396 22.9264 75.5946 22.633 75.7037 22.1919C75.3593 22.0507 75.0176 21.9169 74.6649 21.798C74.428 21.4441 74.428 21.4441 74.186 20.9937C74.1052 20.8471 74.0243 20.7005 73.941 20.5495C73.7318 20.0312 73.6618 19.7247 73.7559 19.1717C74.0178 18.8887 74.2194 18.7214 74.535 18.5152C74.6801 18.417 74.6801 18.417 74.8281 18.3169C75.1569 18.1 75.4901 17.8925 75.8254 17.6863C75.9381 17.6141 76.0509 17.5419 76.167 17.4675C76.8217 17.0647 77.2699 16.8176 78.041 16.9394Z" fill="#FF9100"/>
<path d="M69.9897 46.2222C70.717 46.876 71.2091 47.4912 71.3222 48.493C71.3674 49.5095 71.11 50.2783 70.4604 51.0562C69.3817 51.9652 68.4808 52.106 67.1234 52.0298C66.3793 51.9412 65.8243 51.5098 65.3313 50.9659C64.6872 50.0081 64.5114 49.2185 64.6658 48.0606C65.0065 46.9976 65.5417 46.4168 66.4837 45.8611C67.6593 45.3658 68.934 45.5074 69.9897 46.2222ZM66.1753 47.6338C65.8285 48.3352 65.7528 48.8406 65.9805 49.5953C66.3328 50.2248 66.7299 50.6678 67.3926 50.9495C68.0837 51.0606 68.6877 50.9932 69.2745 50.5971C69.7335 50.1918 69.9471 49.7809 70.0389 49.186C70.0758 48.3937 69.9534 47.8991 69.4703 47.2727C68.9324 46.7979 68.3855 46.6607 67.6792 46.6972C67.0252 46.8119 66.6102 47.1246 66.1753 47.6338Z" fill="white"/>
<path d="M10.7769 46.2222C11.4335 46.8495 11.8945 47.4277 11.9891 48.3586C12.0013 49.4769 11.9608 50.2504 11.1831 51.0762C10.2396 51.9582 9.41475 52.0735 8.16564 52.04C7.24746 51.9673 6.761 51.6536 6.12657 50.9987C5.53674 50.263 5.26831 49.4518 5.33124 48.5038C5.49861 47.5023 5.93723 46.7914 6.7175 46.154C7.93682 45.3469 9.59056 45.3364 10.7769 46.2222ZM6.9706 47.6092C6.58765 48.1686 6.55438 48.7113 6.62163 49.3737C6.88172 50.1189 7.35055 50.5958 8.04999 50.9495C8.69337 51.0209 9.20193 51.0236 9.78674 50.7279C10.4175 50.166 10.7465 49.7416 10.8174 48.8813C10.8083 48.2546 10.6155 47.913 10.2575 47.404C9.61855 46.8195 9.22487 46.7007 8.37969 46.7105C7.73678 46.7826 7.38801 47.1415 6.9706 47.6092Z" fill="white"/>
<path d="M57.135 46.2222C57.2207 46.3089 57.3064 46.3955 57.3947 46.4848C57.3638 46.8077 57.2825 46.9854 57.0944 47.2481C56.8753 47.404 56.8753 47.404 56.6399 47.3876C56.3559 47.2727 56.3559 47.2727 56.0069 47.0675C55.4536 46.8247 55.0027 46.7827 54.4081 46.8788C53.7824 47.1892 53.4121 47.5567 53.1096 48.1919C53.0061 48.8477 53.0344 49.3471 53.3206 49.9482C53.7417 50.4189 54.0789 50.765 54.7196 50.8684C55.2874 50.8943 55.6433 50.8491 56.1611 50.5966C56.5439 50.2821 56.5439 50.2821 56.7454 49.6364C56.1455 49.6364 55.5456 49.6364 54.9275 49.6364C54.9275 49.2897 54.9275 48.943 54.9275 48.5858C55.956 48.5858 56.9844 48.5858 58.044 48.5858C58.044 49.8662 57.8853 50.4566 57.1081 51.3988C56.4919 51.9473 55.8733 52.0694 55.0736 52.0574C54.9818 52.0565 54.8899 52.0556 54.7952 52.0547C53.8471 52.0252 53.3298 51.7724 52.6227 51.1711C51.9642 50.3757 51.6375 49.6521 51.6529 48.6053C51.7321 47.8181 52.0987 47.0894 52.5902 46.4848C53.9334 45.3928 55.6743 45.2411 57.135 46.2222Z" fill="white"/>
<path d="M59.2129 45.8283C60.0565 45.812 60.0565 45.812 60.9172 45.7955C61.1811 45.7883 61.1811 45.7883 61.4503 45.781C62.8821 45.7676 62.8821 45.7676 63.498 46.3535C63.9585 46.8835 64.0568 47.3475 64.0453 48.0534C63.9661 48.8195 63.4985 49.2556 62.9786 49.7677C63.0629 49.9068 63.1473 50.046 63.2342 50.1893C63.3438 50.3716 63.4534 50.5538 63.5629 50.7361C63.6186 50.8279 63.6744 50.9196 63.7318 51.0141C64.1472 51.7076 64.1472 51.7076 64.1472 52C63.6759 52 63.2045 52 62.7189 52C62.545 51.6995 62.372 51.3985 62.1995 51.0972C62.1499 51.0117 62.1004 50.9263 62.0493 50.8382C61.6801 50.1914 61.6801 50.1914 61.6801 49.899C61.2515 49.899 60.823 49.899 60.3815 49.899C60.3815 50.5923 60.3815 51.2857 60.3815 52C59.9959 52 59.6102 52 59.2129 52C59.2129 49.9633 59.2129 47.9267 59.2129 45.8283ZM60.3815 46.8788C60.3815 47.4855 60.3815 48.0921 60.3815 48.7172C60.8154 48.7334 60.8154 48.7334 61.258 48.75C61.5021 48.7591 61.5021 48.7591 61.7511 48.7685C62.2047 48.7555 62.2047 48.7555 62.5139 48.4771C62.748 48.196 62.748 48.196 62.7838 47.798C62.7024 47.3044 62.5919 47.1784 62.1995 46.8788C61.7445 46.8153 61.7445 46.8153 61.258 46.846C60.8242 46.8622 60.8242 46.8622 60.3815 46.8788Z" fill="white"/>
<path d="M0 45.8283C0.843624 45.812 0.843624 45.812 1.70429 45.7955C1.96821 45.7883 1.96821 45.7883 2.23745 45.781C3.5285 45.7689 3.5285 45.7689 3.98378 46.0519C4.40783 46.4764 4.64174 46.7875 4.73093 47.3912C4.73199 48.2233 4.72335 48.75 4.15522 49.3737C4.02667 49.4604 3.89812 49.5471 3.76567 49.6364C3.95764 50.1658 4.20997 50.6302 4.49608 51.1136C4.93433 51.8553 4.93433 51.8553 4.93433 52C4.43758 52.0804 3.99916 52.1134 3.50597 52C3.13854 51.6114 2.94549 51.1723 2.72687 50.6869C2.56337 50.322 2.56337 50.322 2.33731 50.0303C1.94174 49.9053 1.58749 49.9174 1.16866 49.899C1.16866 50.5923 1.16866 51.2857 1.16866 52C0.783 52 0.397343 52 0 52C0 49.9633 0 47.9267 0 45.8283ZM1.16866 46.8788C1.16866 47.4855 1.16866 48.0921 1.16866 48.7172C1.60252 48.7334 1.60252 48.7334 2.04515 48.75C2.2892 48.7591 2.2892 48.7591 2.53818 48.7685C2.99119 48.7546 2.99119 48.7546 3.30511 48.4817C3.55022 48.1871 3.55022 48.1871 3.50597 47.7241C3.36024 47.2175 3.30167 47.1261 2.85672 46.8788C2.43117 46.8312 2.43117 46.8312 1.98022 46.8542C1.71241 46.8623 1.44459 46.8704 1.16866 46.8788Z" fill="white"/>
<path d="M43.2402 45.8283C43.6687 45.8283 44.0972 45.8283 44.5387 45.8283C44.5387 46.6516 44.5387 47.4749 44.5387 48.3232C45.4815 48.3232 46.4242 48.3232 47.3955 48.3232C47.3955 47.4999 47.3955 46.6766 47.3955 45.8283C47.824 45.8283 48.2525 45.8283 48.694 45.8283C48.694 47.8649 48.694 49.9016 48.694 52C48.2655 52 47.837 52 47.3955 52C47.3955 51.1333 47.3955 50.2667 47.3955 49.3737C46.4527 49.3737 45.51 49.3737 44.5387 49.3737C44.5387 50.2404 44.5387 51.1071 44.5387 52C44.1102 52 43.6817 52 43.2402 52C43.2402 49.9633 43.2402 47.9267 43.2402 45.8283Z" fill="white"/>
<path d="M41.1635 46.2222C41.6089 46.6126 41.9381 47.0012 42.2023 47.5354C42.2023 47.6654 42.2023 47.7954 42.2023 47.9293C41.0588 48.0505 41.0588 48.0505 40.6912 47.7631C40.5379 47.5616 40.3958 47.3516 40.2545 47.1414C39.7131 46.7971 39.1876 46.793 38.5664 46.8788C38.0874 47.0508 37.7419 47.3016 37.414 47.6995C37.1354 48.3882 37.0558 48.9645 37.2842 49.6692C37.4863 50.1465 37.7366 50.4086 38.1769 50.6869C38.7017 50.8638 39.1859 50.8767 39.7351 50.8182C40.108 50.6383 40.108 50.6383 40.3843 50.4242C40.47 50.4242 40.5558 50.4242 40.644 50.4242C40.7298 50.2076 40.8155 49.9909 40.9037 49.7677C41.3323 49.7677 41.7608 49.7677 42.2023 49.7677C42.0857 50.6254 41.5855 51.1184 40.9453 51.6589C40.0948 52.196 39.0066 52.113 38.047 52C37.0585 51.6791 36.5033 51.0335 35.9938 50.1452C35.6976 49.361 35.7042 48.483 35.9583 47.6903C36.4174 46.6867 37.0298 46.1256 38.047 45.697C39.1267 45.3992 40.2391 45.5983 41.1635 46.2222Z" fill="white"/>
<path d="M31.0352 45.8283C32.4492 45.8283 33.8633 45.8283 35.3202 45.8283C35.3202 46.1749 35.3202 46.5216 35.3202 46.8788C34.2918 46.8788 33.2634 46.8788 32.2038 46.8788C32.2038 47.3554 32.2038 47.8321 32.2038 48.3232C33.0608 48.3232 33.9178 48.3232 34.8008 48.3232C34.8008 48.6699 34.8008 49.0166 34.8008 49.3737C33.9438 49.3737 33.0868 49.3737 32.2038 49.3737C32.2038 49.8504 32.2038 50.3271 32.2038 50.8182C33.2322 50.8182 34.2606 50.8182 35.3202 50.8182C35.3202 51.2082 35.3202 51.5982 35.3202 52C33.9062 52 32.4921 52 31.0352 52C31.0352 49.9633 31.0352 47.9267 31.0352 45.8283Z" fill="white"/>
<path d="M12.9844 45.8283C13.828 45.8121 13.828 45.8121 14.6887 45.7955C14.9526 45.7883 14.9526 45.7883 15.2218 45.781C16.6559 45.7676 16.6559 45.7676 17.2695 46.3536C17.7142 46.8964 17.807 47.502 17.7889 48.192C17.6792 48.7544 17.4975 49.1376 17.1071 49.5543C16.18 50.1084 15.3392 50.0543 14.2829 50.0303C14.2829 50.6803 14.2829 51.3303 14.2829 52C13.8544 52 13.4259 52 12.9844 52C12.9844 49.9634 12.9844 47.9267 12.9844 45.8283ZM14.2829 46.8788C14.2829 47.5288 14.2829 48.1788 14.2829 48.8485C15.1318 48.9071 15.1318 48.9071 15.9709 48.8485C16.2983 48.5633 16.2983 48.5633 16.4903 48.192C16.4903 47.7053 16.4889 47.4047 16.1434 47.0496C15.7509 46.8279 15.4761 46.8395 15.0295 46.8542C14.7831 46.8623 14.5367 46.8705 14.2829 46.8788Z" fill="white"/>
<path d="M78.5605 45.8283C79.0989 45.8174 79.6372 45.8066 80.1918 45.7955C80.4438 45.7883 80.4438 45.7883 80.7008 45.781C81.5765 45.7724 82.1416 45.8088 82.8456 46.3535C83.2587 46.8548 83.3833 47.4155 83.365 48.0606C83.2556 48.6612 83.0954 49.111 82.6833 49.5625C81.7477 50.1001 80.9177 50.0544 79.8591 50.0303C79.8591 50.6803 79.8591 51.3303 79.8591 52C79.4305 52 79.002 52 78.5605 52C78.5605 49.9633 78.5605 47.9267 78.5605 45.8283ZM79.8591 46.8788C79.8591 47.5288 79.8591 48.1788 79.8591 48.8485C80.708 48.9071 80.708 48.9071 81.5471 48.8485C81.8745 48.5633 81.8745 48.5633 82.0665 48.1919C82.0665 47.7053 82.065 47.4047 81.7196 47.0496C81.3271 46.8278 81.0523 46.8394 80.6057 46.8542C80.3593 46.8623 80.1129 46.8704 79.8591 46.8788Z" fill="white"/>
<path d="M18.6992 45.8282C20.0704 45.8282 21.4417 45.8282 22.8544 45.8282C22.8544 46.1749 22.8544 46.5216 22.8544 46.8788C21.8689 46.8788 20.8833 46.8788 19.8679 46.8788C19.8679 47.3554 19.8679 47.8321 19.8679 48.3232C20.7249 48.3232 21.5819 48.3232 22.4649 48.3232C22.4649 48.6699 22.4649 49.0165 22.4649 49.3737C21.6079 49.3737 20.7509 49.3737 19.8679 49.3737C19.8679 49.8504 19.8679 50.327 19.8679 50.8181C20.8963 50.8181 21.9247 50.8181 22.9843 50.8181C22.9843 51.2081 22.9843 51.5981 22.9843 52C21.5702 52 20.1561 52 18.6992 52C18.6992 49.9633 18.6992 47.9266 18.6992 45.8282Z" fill="white"/>
<path d="M72.1978 45.8283C72.5835 45.8283 72.9691 45.8283 73.3665 45.8283C73.3683 45.9482 73.3702 46.068 73.3722 46.1915C73.3801 46.6382 73.3898 47.0848 73.4005 47.5314C73.4048 47.7243 73.4085 47.9173 73.4114 48.1103C73.4158 48.3884 73.4226 48.6663 73.4299 48.9444C73.4333 49.1115 73.4367 49.2786 73.4402 49.4508C73.4999 49.9277 73.5996 50.176 73.8859 50.5556C74.3628 50.8771 74.7601 50.9274 75.3142 50.8182C75.7323 50.4854 75.9251 50.2781 76.0933 49.7677C76.113 49.4679 76.1256 49.1677 76.1344 48.8675C76.1371 48.7806 76.1398 48.6937 76.1426 48.6042C76.1511 48.3273 76.1587 48.0503 76.1664 47.7734C76.172 47.5854 76.1776 47.3974 76.1834 47.2094C76.1972 46.749 76.2104 46.2887 76.2232 45.8283C76.6088 45.8283 76.9945 45.8283 77.3918 45.8283C77.4048 46.4449 77.4141 47.0614 77.4204 47.6781C77.423 47.8875 77.4265 48.0968 77.431 48.3062C77.4767 50.4791 77.4767 50.4791 76.8724 51.3434C76.2613 51.9576 75.6427 52.0678 74.7948 52.0821C74.0877 52.071 73.5116 51.9905 72.9221 51.5768C72.2906 50.8576 72.1209 50.2626 72.1471 49.3291C72.1478 49.2284 72.1485 49.1277 72.1493 49.0239C72.1522 48.7055 72.1587 48.3872 72.1653 48.0688C72.1679 47.8516 72.1703 47.6343 72.1724 47.4171C72.1781 46.8874 72.1871 46.3579 72.1978 45.8283Z" fill="white"/>
<path d="M74.9241 13.2626C75.7844 14.0463 76.3469 15.383 76.8719 16.4141C76.8719 16.5008 76.8719 16.5875 76.8719 16.6767C76.4268 16.9443 75.98 17.2088 75.5328 17.4728C75.406 17.5491 75.2792 17.6253 75.1486 17.7039C75.0268 17.7754 74.905 17.8469 74.7796 17.9206C74.6113 18.0207 74.6113 18.0207 74.4396 18.1228C74.145 18.2525 74.145 18.2525 73.7555 18.1212C73.4731 17.7475 73.2556 17.3309 73.0251 16.923C72.9598 16.8123 72.8945 16.7016 72.8272 16.5875C72.4663 15.9556 72.2094 15.4438 72.1973 14.7071C72.7173 13.9636 74.0086 12.968 74.9241 13.2626ZM73.4958 14.7071C73.4529 14.9237 73.4101 15.1404 73.3659 15.3636C73.5588 15.4936 73.5588 15.4936 73.7555 15.6262C73.884 15.5396 74.0126 15.4529 74.145 15.3636C74.1022 15.147 74.0593 14.9303 74.0152 14.7071C73.8438 14.7071 73.6724 14.7071 73.4958 14.7071Z" fill="#FF9100"/>
<path d="M81.3033 24.4404C81.7968 24.673 81.9869 25.2308 82.2374 25.6963C82.2981 25.8019 82.3588 25.9074 82.4213 26.0162C82.6822 26.4928 82.8452 26.8119 82.8497 27.3634C82.6973 27.756 82.5728 27.8926 82.2293 28.1256C82.1351 28.1901 82.0408 28.2546 81.9437 28.3211C81.8119 28.4071 81.8119 28.4071 81.6774 28.495C81.5127 28.6168 81.5127 28.6168 81.3447 28.7412C80.9071 28.9454 80.5951 28.9501 80.1192 28.8889C79.5923 28.4648 79.2983 27.89 78.9749 27.3049C78.9204 27.2104 78.866 27.1159 78.8098 27.0185C78.759 26.9273 78.7082 26.8362 78.6559 26.7422C78.6095 26.6596 78.5632 26.577 78.5155 26.4919C78.4312 26.2626 78.4312 26.2626 78.561 25.8687C78.9388 25.5778 79.3586 25.3522 79.7703 25.1136C79.883 25.0454 79.9957 24.9772 80.1119 24.9069C80.2209 24.8431 80.33 24.7793 80.4423 24.7136C80.5422 24.6549 80.642 24.5962 80.7448 24.5357C81.0282 24.4243 81.0282 24.4243 81.3033 24.4404ZM80.5088 26.5253C80.4231 26.6119 80.3374 26.6986 80.2491 26.7879C80.2907 27.1297 80.2907 27.1297 80.3789 27.4445C80.5932 27.4011 80.8074 27.3578 81.0282 27.3131C80.9853 27.0965 80.9425 26.8798 80.8983 26.6566C80.7698 26.6132 80.6412 26.5699 80.5088 26.5253Z" fill="#FF9100"/>
<path d="M25.4512 45.8282C27.0366 45.8282 28.6221 45.8282 30.2556 45.8282C30.2556 46.1749 30.2556 46.5216 30.2556 46.8788C29.6557 46.8788 29.0558 46.8788 28.4377 46.8788C28.4377 48.5688 28.4377 50.2588 28.4377 52C28.0521 52 27.6664 52 27.2691 52C27.2691 50.31 27.2691 48.62 27.2691 46.8788C26.6692 46.8788 26.0693 46.8788 25.4512 46.8788C25.4512 46.5321 25.4512 46.1854 25.4512 45.8282Z" fill="white"/>
</g>
<defs>
<clipPath id="clip0_565_6209">
<rect width="87" height="52" fill="white"/>
</clipPath>
</defs>
</svg>
