<svg width="24" height="24" viewBox="0 0 24 24" fill="none" xmlns="http://www.w3.org/2000/svg">
<g clip-path="url(#clip0_1389_14407)">
<path d="M5.3716 23.499C5.1086 23.499 4.8476 23.417 4.6246 23.256C4.2096 22.955 4.0156 22.438 4.1286 21.939L5.6726 15.138L0.436604 10.546C0.0516039 10.21 -0.0953961 9.678 0.0626039 9.191C0.220604 8.705 0.650604 8.361 1.1596 8.314L8.0876 7.685L10.8266 1.275C11.0286 0.804 11.4886 0.5 11.9996 0.5C12.5106 0.5 12.9706 0.804 13.1726 1.274L15.9116 7.685L22.8386 8.314C23.3486 8.36 23.7786 8.705 23.9366 9.191C24.0946 9.677 23.9486 10.21 23.5636 10.546L18.3276 15.137L19.8716 21.938C19.9846 22.438 19.7906 22.955 19.3756 23.255C18.9616 23.555 18.4096 23.578 17.9736 23.316L11.9996 19.746L6.0256 23.318C5.8236 23.438 5.5986 23.499 5.3716 23.499ZM11.9996 18.208C12.2266 18.208 12.4516 18.269 12.6536 18.389L18.2916 21.761L16.8346 15.342C16.7306 14.885 16.8856 14.408 17.2386 14.099L22.1826 9.763L15.6416 9.169C15.1706 9.126 14.7656 8.83 14.5816 8.396L11.9996 2.347L9.4146 8.397C9.2326 8.828 8.8276 9.124 8.3576 9.167L1.8156 9.761L6.7596 14.097C7.1136 14.407 7.2686 14.883 7.1636 15.341L5.7076 21.76L11.3456 18.389C11.5476 18.269 11.7726 18.208 11.9996 18.208ZM8.0346 7.809C8.0346 7.809 8.03461 7.81 8.0336 7.811L8.0346 7.809ZM15.9626 7.806L15.9636 7.808C15.9636 7.807 15.9636 7.807 15.9626 7.806Z" fill="black"/>
</g>
<defs>
<clipPath id="clip0_1389_14407">
<rect width="24" height="24" fill="white"/>
</clipPath>
</defs>
</svg>
